HIERARCHY
ROOT Hips
{
	OFFSET 0.000000 0.000000 0.000000
	CHANNELS 6 Xposition Yposition Zposition Zrotation Yrotation Xrotation 
	JOINT LowerBack
	{
		OFFSET 0.000000 0.000000 0.000000
		CHANNELS 3 Zrotation Yrotation Xrotation
		JOINT Spine
		{
			OFFSET 0.028270 2.035590 -0.193380
			CHANNELS 3 Zrotation Yrotation Xrotation
			JOINT Spine1
			{
				OFFSET 0.056720 2.048850 -0.042750
				CHANNELS 3 Zrotation Yrotation Xrotation
				JOINT Neck
				{
					OFFSET 0.000000 0.000000 0.000000
					CHANNELS 3 Zrotation Yrotation Xrotation
					JOINT Neck1
					{
						OFFSET -0.054170 1.746240 0.172020
						CHANNELS 3 Zrotation Yrotation Xrotation
						JOINT Head
						{
							OFFSET 0.104070 1.761360 -0.123970
							CHANNELS 3 Zrotation Yrotation Xrotation
							End Site
							{
								OFFSET 0.000000 0.000000 0.000000
							}
						}
					}
				}
				JOINT LeftShoulder
				{
					OFFSET 0.000000 0.000000 0.000000
					CHANNELS 3 Zrotation Yrotation Xrotation
					JOINT LeftArm
					{
						OFFSET 3.362410 1.200890 -0.311210
						CHANNELS 3 Zrotation Yrotation Xrotation
						JOINT LeftForeArm
						{
							OFFSET 4.983000 -0.000000 -0.000000
							CHANNELS 3 Zrotation Yrotation Xrotation
							JOINT LeftHand
							{
								OFFSET 3.483560 -0.000000 -0.000000
								CHANNELS 3 Zrotation Yrotation Xrotation
								JOINT LeftFingerBase
								{
									OFFSET 0.000000 0.000000 0.000000
									CHANNELS 3 Zrotation Yrotation Xrotation
									JOINT LeftHandIndex1
									{
										OFFSET 0.715260 -0.000000 -0.000000
										CHANNELS 3 Zrotation Yrotation Xrotation
										End Site
										{
											OFFSET 0.000000 0.000000 0.000000
										}
									}
								}
								JOINT LThumb
								{
									OFFSET 0.000000 0.000000 0.000000
									CHANNELS 3 Zrotation Yrotation Xrotation
									End Site
									{
										OFFSET 0.000000 0.000000 0.000000
									}
								}
							}
						}
					}
				}
				JOINT RightShoulder
				{
					OFFSET 0.000000 0.000000 0.000000
					CHANNELS 3 Zrotation Yrotation Xrotation
					JOINT RightArm
					{
						OFFSET -3.136600 1.374050 -0.404650
						CHANNELS 3 Zrotation Yrotation Xrotation
						JOINT RightForeArm
						{
							OFFSET -5.241900 -0.000000 -0.000000
							CHANNELS 3 Zrotation Yrotation Xrotation
							JOINT RightHand
							{
								OFFSET -3.444170 -0.000000 -0.000000
								CHANNELS 3 Zrotation Yrotation Xrotation
								JOINT RightFingerBase
								{
									OFFSET 0.000000 0.000000 0.000000
									CHANNELS 3 Zrotation Yrotation Xrotation
									JOINT RightHandIndex1
									{
										OFFSET -0.622530 -0.000000 -0.000000
										CHANNELS 3 Zrotation Yrotation Xrotation
										End Site
										{
											OFFSET 0.000000 0.000000 0.000000
										}
									}
								}
								JOINT RThumb
								{
									OFFSET 0.000000 0.000000 0.000000
									CHANNELS 3 Zrotation Yrotation Xrotation
									End Site
									{
										OFFSET 0.000000 0.000000 0.000000
									}
								}
							}
						}
					}
				}
			}
		}
	}
}
}
MOTION
Frames: 9
Frame Time: 0.008333
-20.995724 17.344785 -0.707798 11.794707 77.777072 47.494686 -7.285435 2.681756 -4.381544 -1.997588 3.053869 -4.050275 -3.218728 2.913640 -0.022794 3.067066 -3.158340 -2.871198 -0.275503 -0.097174 1.242947 0.000000 0.000000 0.000000 6.816224 17.069954 1.951100 -47.109254 54.760420 37.885810 -2.219570 -61.473040 0.000617 -4.918369 -3.807114 0.159106 -0.071794 -0.055613 -0.000000 0.000000 0.000000 0.000000 0.000000 0.000000 0.000000 -5.316318 2.188172 -3.415196 60.921717 54.176614 11.477952 -179.733906 86.032289 179.970687 -1.314142 9.062210 -0.103966 -0.092897 -0.677222 -0.000000 0.000000 0.000000 0.000000 0.000000 0.000000 0.000000 
-20.755227 17.416901 -0.704835 12.915342 78.199706 48.713226 -7.603028 2.715101 -4.420274 -2.035290 3.110735 -4.050829 -3.060904 2.969766 0.021416 2.823097 -3.186588 -2.811738 -0.159829 -0.089983 1.259456 0.000000 0.000000 0.000000 7.060325 17.128167 1.949694 -47.584681 54.819293 36.543207 -2.182359 -62.120267 0.002197 -4.782993 -3.994431 0.162758 -0.075476 -0.045346 -0.000000 0.000000 0.000000 0.000000 0.000000 0.000000 0.000000 -6.023654 2.132477 -3.424222 59.855546 54.510745 10.515467 -179.717347 86.268892 179.976994 -0.634045 8.441660 -0.041543 -0.110534 -0.664960 -0.000000 0.000000 0.000000 0.000000 0.000000 0.000000 0.000000 
-20.513509 17.477357 -0.699490 14.271585 78.684367 50.169530 -7.923414 2.717941 -4.474190 -2.077288 3.136671 -4.051793 -2.924609 2.995192 0.076472 2.642455 -3.229795 -2.761852 -0.057125 -0.083566 1.273019 0.000000 0.000000 0.000000 7.307321 17.187765 1.942463 -48.041202 54.753083 35.358576 -2.127040 -62.912297 0.003767 -4.597007 -4.178929 0.164009 -0.078752 -0.034853 0.000000 0.000000 0.000000 0.000000 0.000000 0.000000 0.000000 -6.609717 2.066708 -3.411712 58.866025 54.757336 9.760563 -179.707574 86.590285 179.983709 0.044713 7.810784 0.012791 -0.126248 -0.650943 -0.000000 0.000000 0.000000 0.000000 0.000000 0.000000 0.000000 
-20.270416 17.525570 -0.692331 15.755275 79.228086 51.764252 -8.223788 2.701347 -4.556506 -2.119846 3.141408 -4.057660 -2.812202 2.999437 0.135516 2.522856 -3.270764 -2.717668 0.030261 -0.078163 1.284991 0.000000 0.000000 0.000000 7.519247 17.230872 1.923998 -48.443586 54.602473 34.301476 -2.054251 -63.873923 0.005230 -4.374318 -4.336894 0.162159 -0.081626 -0.024424 0.000000 0.000000 0.000000 0.000000 0.000000 0.000000 0.000000 -7.071020 2.014251 -3.372517 57.930161 54.898415 9.201546 -179.703891 86.966299 179.990472 0.697617 7.191398 0.057337 -0.139494 -0.635841 0.000000 0.000000 0.000000 0.000000 0.000000 0.000000 0.000000 
-20.026660 17.561620 -0.683845 17.427050 79.810644 53.541588 -8.504598 2.668533 -4.643373 -2.161928 3.128445 -4.063688 -2.718710 2.986398 0.196519 2.445641 -3.298054 -2.683450 0.103024 -0.073624 1.293844 0.000000 0.000000 0.000000 7.693811 17.280001 1.899803 -48.789965 54.305905 33.429750 -1.967076 -64.947733 0.006635 -4.082275 -4.493066 0.156908 -0.084448 -0.013996 0.000000 0.000000 0.000000 0.000000 0.000000 0.000000 0.000000 -7.431732 1.985301 -3.315043 57.088199 54.940335 8.838699 -179.705118 87.381005 179.997008 1.315555 6.608883 0.092695 -0.150396 -0.620360 0.000000 0.000000 0.000000 0.000000 0.000000 0.000000 0.000000 
-19.782881 17.585624 -0.674366 19.287799 80.416725 55.495406 -8.764918 2.626700 -4.726950 -2.203563 3.104869 -4.070156 -2.643802 2.963311 0.252596 2.403584 -3.297326 -2.655347 0.160045 -0.070088 1.300642 0.000000 0.000000 0.000000 7.812563 17.316351 1.870487 -49.096167 53.878357 32.685782 -1.869109 -66.110628 0.007953 -3.723209 -4.643626 0.147961 -0.087347 -0.003650 0.000000 0.000000 0.000000 0.000000 0.000000 0.000000 0.000000 -7.698402 1.996156 -3.240536 56.353469 54.868651 8.655034 -179.709766 87.806026 -179.996925 1.884274 6.079690 0.119365 -0.158813 -0.605141 -0.000000 0.000000 0.000000 0.000000 0.000000 0.000000 0.000000 
-19.539461 17.598557 -0.665732 21.101317 81.061515 57.394180 -8.948207 2.587814 -4.803091 -2.231855 3.079452 -4.075828 -2.585783 2.938843 0.300719 2.376235 -3.259899 -2.632707 0.200485 -0.067619 1.305596 0.000000 0.000000 0.000000 7.838644 17.341546 1.836985 -49.391959 53.306278 32.019375 -1.764861 -67.318439 0.009184 -3.289031 -4.793800 0.134716 -0.090734 0.006588 0.000000 0.000000 0.000000 0.000000 0.000000 0.000000 0.000000 -7.895243 2.057458 -3.155855 55.752186 54.678973 8.638995 -179.718130 88.221154 -179.991477 2.397628 5.615576 0.139048 -0.164879 -0.590525 -0.000000 0.000000 0.000000 0.000000 0.000000 0.000000 0.000000 
-19.296898 17.600657 -0.657114 23.078737 81.707313 59.421593 -9.103492 2.551971 -4.846374 -2.257815 3.054895 -4.078075 -2.544672 2.916277 0.334472 2.364755 -3.179789 -2.610511 0.223661 -0.066343 1.309849 0.000000 0.000000 0.000000 7.784002 17.330081 1.803872 -49.718897 52.598437 31.357886 -1.658275 -68.532957 0.010309 -2.782028 -4.946541 0.117174 -0.094596 0.016767 0.000000 0.000000 0.000000 0.000000 0.000000 0.000000 0.000000 -8.018789 2.174485 -3.063844 55.325780 54.361247 8.772419 -179.727998 88.613085 -179.986752 2.845733 5.219986 0.152740 -0.168570 -0.576964 -0.000000 0.000000 0.000000 0.000000 0.000000 0.000000 0.000000 
-19.055367 17.592914 -0.649790 25.041891 82.366452 61.399220 -9.192903 2.527411 -4.850428 -2.273136 3.037233 -4.075213 -2.520888 2.901621 0.352423 2.357083 -3.057745 -2.587213 0.228249 -0.066374 1.313817 0.000000 0.000000 0.000000 7.623887 17.280210 1.772393 -50.109804 51.746803 30.641643 -1.553107 -69.715771 0.011319 -2.201751 -5.103559 0.094938 -0.099184 0.026879 0.000000 0.000000 0.000000 0.000000 0.000000 0.000000 0.000000 -8.080210 2.347801 -2.970583 55.109219 53.915085 9.043818 -179.739701 88.982306 -179.982795 3.223382 4.889628 0.161746 -0.169974 -0.564453 -0.000000 0.000000 0.000000 0.000000 0.000000 0.000000 0.000000 
